{"title":"Red Dragon (2002) Hindi Dvd Rip xvid","uid":7490628,"size":756341934,"categoryP":"video","categoryS":"movies","magnet":"?xt=urn:btih:ef4066147f8b9e3ad232f429583d1d82bb6109e3&amp;dn=Red+Dragon+%282002%29+Hindi+Dvd+Rip+xvid&amp;tr=udp%3A%2F%2Ftracker.openbittorrent.com%3A80&amp;tr=udp%3A%2F%2Fopen.demonii.com%3A1337&amp;tr=udp%3A%2F%2Ftracker.coppersurfer.tk%3A6969&amp;tr=udp%3A%2F%2Fexodus.desync.com%3A6969","seeders":0,"leechers":0,"uploader":"ddps","files":4,"time":1343730919,"description":"General\nComplete name                            :Red Dragon (2002) Hindi Dvd Rip xvid 1.avi\nFormat                                   : AVI\nFormat/Info                              : Audio Video Interleave\nFile size                                : 647 MiB\nDuration                                 : 1h 49mn\nOverall bit rate                         : 825 Kbps\nWriting application                      : Lavf52.39.1\n\nVideo\nID                                       : 0\nFormat                                   : xvid\nCodec ID                                 : xvid\nDuration                                 : 1h 49mn\nBit rate                                 : 748 Kbps\nWidth                                    : 480 pixels\nHeight                                   : 228 pixels\nDisplay aspect ratio                     : 2.105\nFrame rate                               : 25.000 fps\nBits/(Pixel*Frame)                       : 0.273\nStream size                              : 587 MiB (91%)\n\nAudio\nID                                       : 1\nFormat                                   : MPEG Audio\nFormat version                           : Version 1\nFormat profile                           : Layer 3\nMode                                     : Joint stereo\nMode extension                           : MS Stereo\nCodec ID                                 : 55\nCodec ID/Hint                            : MP3\nDuration                                 : 1h 49mn\nBit rate mode                            : Constant\nBit rate                                 : 64.0 Kbps\nChannel(s)                               : 2 channels\nSampling rate                            : 48.0 KHz\nCompression mode                         : Lossy\nStream size                              : 50.2 MiB (8%)\nAlignment                                : Aligned on interleaves\nInterleave, duration                     : 24 ms (0.60 video frame)\n\n","torrent":{"xt":"urn:btih:ef4066147f8b9e3ad232f429583d1d82bb6109e3","amp;dn":"Red+Dragon+%282002%29+Hindi+Dvd+Rip+xvid","amp;tr":["udp%3A%2F%2Ftracker.openbittorrent.com%3A80","udp%3A%2F%2Fopen.demonii.com%3A1337","udp%3A%2F%2Ftracker.coppersurfer.tk%3A6969","udp%3A%2F%2Fexodus.desync.com%3A6969"],"infoHash":"ef4066147f8b9e3ad232f429583d1d82bb6109e3","infoHashBuffer":{"type":"Buffer","data":[239,64,102,20,127,139,158,58,210,50,244,41,88,61,29,130,187,97,9,227]},"announce":[],"urlList":[]}}